Coordinates
version=1
nRows=16
nColumns=63
inDegrees=yes

Units are S.I. units (second, meters, Newtons, ...)
If the header above contains a line with 'inDegrees', this indicates whether rotational values are in degrees (yes) or radians (no).

endheader
time	pelvis_tilt	pelvis_list	pelvis_rotation	pelvis_tx	pelvis_ty	pelvis_tz	hip_flexion_r	hip_adduction_r	hip_rotation_r	knee_angle_r	knee_angle_r_beta	ankle_angle_r	subtalar_angle_r	mtp_angle_r	hip_flexion_l	hip_adduction_l	hip_rotation_l	knee_angle_l	knee_angle_l_beta	ankle_angle_l	subtalar_angle_l	mtp_angle_l	L5_S1_Flex_Ext	L5_S1_Lat_Bending	L5_S1_axial_rotation	L4_L5_Flex_Ext	L4_L5_Lat_Bending	L4_L5_axial_rotation	L3_L4_Flex_Ext	L3_L4_Lat_Bending	L3_L4_axial_rotation	L2_L3_Flex_Ext	L2_L3_Lat_Bending	L2_L3_axial_rotation	L1_L2_Flex_Ext	L1_L2_Lat_Bending	L1_L2_axial_rotation	L1_T12_Flex_Ext	L1_T12_Lat_Bending	L1_T12_axial_rotation	Abs_r3	Abs_r2	Abs_r1	Abs_t1	Abs_t2	neck_flexion	neck_bending	neck_rotation	arm_flex_r	arm_add_r	arm_rot_r	elbow_flex_r	pro_sup_r	wrist_flex_r	wrist_dev_r	arm_flex_l	arm_add_l	arm_rot_l	elbow_flex_l	pro_sup_l	wrist_flex_l	wrist_dev_l
2.033333	4.456111	5.793232	96.096789	0.128210	0.596112	0.861786	-0.000684	0.010021	-16.230506	9.094671	0.158732	25.369089	16.944849	0.000000	-0.031233	-0.429731	13.360264	3.117642	0.054413	21.992134	-12.559074	0.000000	0.078207	-0.274139	0.328657	0.145238	-0.364605	0.349198	0.128486	-0.666541	0.349198	0.089382	-0.666541	0.287575	0.072623	-0.559024	0.267034	0.044687	-0.424641	0.246493	0.558622	-3.101112	1.827892	0.000000	0.000000	24.860762	-2.227362	-7.778466	3.126975	-13.351603	49.562980	26.722031	60.888617	-4.383889	0.181751	13.459705	-11.296519	62.255733	34.167231	87.996794	-16.935405	2.938017
2.050000	4.522254	5.861557	96.044118	0.128220	0.596248	0.861267	-0.181194	0.129466	-16.196654	8.920258	0.155688	25.325582	16.940613	0.000000	-0.243703	-0.538949	13.361192	2.905393	0.050709	22.016243	-12.475112	0.000000	0.068485	-0.261322	0.399238	0.127183	-0.347558	0.424190	0.112513	-0.635379	0.424190	0.078271	-0.635379	0.349333	0.063595	-0.532888	0.324381	0.039132	-0.404788	0.299429	0.489179	-2.956128	2.220443	0.000000	0.000000	24.881443	-2.558004	-7.979852	2.966482	-13.382494	49.285330	26.896249	60.491754	-4.320982	0.014842	14.369239	-10.998417	65.341085	34.046752	88.185011	-16.636099	4.247323
2.066667	4.561184	5.896392	96.040523	0.128183	0.596329	0.860811	-0.362089	0.228511	-16.174045	8.674617	0.151401	25.294354	16.949887	0.000000	-0.399553	-0.611570	13.441576	2.723709	0.047538	22.024517	-12.444437	0.000000	0.059706	-0.252423	0.467521	0.110879	-0.335723	0.496741	0.098091	-0.613742	0.496741	0.068238	-0.613742	0.409081	0.055443	-0.514742	0.379861	0.034116	-0.391004	0.350641	0.426472	-2.855465	2.600210	0.000000	0.000000	24.969045	-2.854963	-8.258538	2.820500	-13.407738	49.097544	27.105573	59.994931	-4.315472	-0.232607	15.331000	-10.703821	68.495141	33.968588	88.425836	-16.127687	5.761098
2.083333	4.570156	5.892181	96.078454	0.128077	0.596355	0.860444	-0.526473	0.298701	-16.128145	8.375094	0.146173	25.272326	16.930621	0.000000	-0.489705	-0.639208	13.585855	2.577567	0.044987	22.004636	-12.477606	0.000000	0.053069	-0.247257	0.532715	0.098555	-0.328852	0.566010	0.087187	-0.601182	0.566010	0.060653	-0.601182	0.466126	0.049280	-0.504207	0.432831	0.030324	-0.383002	0.399536	0.379068	-2.797025	2.962801	0.000000	0.000000	25.112377	-3.101157	-8.575871	2.648905	-13.406538	48.766619	27.349876	59.689818	-4.366822	-0.529035	16.345232	-10.412314	71.754627	33.867153	88.655442	-15.491295	7.203648
2.100000	4.537864	5.839307	96.175992	0.127893	0.596308	0.860180	-0.660945	0.321191	-16.110686	8.038616	0.140300	25.265548	16.917106	0.000000	-0.497559	-0.608665	13.764398	2.478314	0.043255	21.969608	-12.510547	0.000000	0.050428	-0.247819	0.578967	0.093650	-0.329600	0.615153	0.082848	-0.602548	0.615153	0.057634	-0.602548	0.506597	0.046827	-0.505353	0.470411	0.028815	-0.383872	0.434226	0.360202	-2.803383	3.220043	0.000000	0.000000	25.303984	-3.254630	-8.897363	2.536147	-13.372254	48.583543	27.598553	59.292047	-4.487455	-0.954583	17.272511	-10.168892	74.663559	33.827429	88.889782	-14.616715	8.716477
2.116667	4.468049	5.736806	96.329422	0.127616	0.596185	0.860025	-0.759670	0.295933	-16.126493	7.677202	0.133992	25.260660	16.891794	0.000000	-0.421432	-0.520482	13.999806	2.425632	0.042335	21.914330	-12.582099	0.000000	0.052328	-0.253051	0.602212	0.097178	-0.336557	0.639850	0.085970	-0.615267	0.639850	0.059806	-0.615267	0.526936	0.048592	-0.516021	0.489297	0.029900	-0.391975	0.451659	0.373774	-2.862559	3.349324	0.000000	0.000000	25.537866	-3.298908	-9.162208	2.499816	-13.314125	48.535823	27.871233	58.906833	-4.734529	-1.506375	18.052399	-9.962541	77.039203	33.832226	89.127492	-13.520966	10.165230
2.133333	4.364111	5.582182	96.544634	0.127247	0.595982	0.860000	-0.816362	0.224044	-16.173452	7.298135	0.127376	25.248026	16.841083	0.000000	-0.252228	-0.379153	14.225916	2.428619	0.042387	21.874111	-12.590046	0.000000	0.059072	-0.262598	0.596091	0.109703	-0.349255	0.633347	0.097050	-0.638480	0.633347	0.067514	-0.638480	0.521580	0.054854	-0.535489	0.484324	0.033754	-0.406764	0.447069	0.421947	-2.970559	3.315282	0.000000	0.000000	25.822422	-3.223912	-9.329101	2.577566	-13.232575	48.667222	28.161011	58.670471	-5.171522	-2.187492	18.618464	-9.786937	78.670176	33.889316	89.302347	-12.168902	11.468188
2.150000	4.223253	5.364878	96.810801	0.126795	0.595680	0.860095	-0.798343	0.091079	-16.280046	6.945421	0.121220	25.257641	16.803286	0.000000	0.014896	-0.176360	14.521734	2.479460	0.043275	21.822012	-12.670168	0.000000	0.073766	-0.276526	0.561488	0.136991	-0.367779	0.596581	0.121191	-0.672344	0.596581	0.084308	-0.672344	0.491302	0.068499	-0.563891	0.456209	0.042150	-0.428338	0.421116	0.526906	-3.128113	3.122825	0.000000	0.000000	26.126462	-3.039235	-9.371346	2.831680	-13.128215	49.174971	28.463525	58.480060	-5.814000	-3.018154	18.960466	-9.633921	79.547567	34.001237	89.390535	-10.605349	12.631889
2.166667	4.052773	5.077964	97.103672	0.126340	0.595284	0.860301	-0.684320	-0.093459	-16.406985	6.632834	0.115765	25.299528	16.757109	0.000000	0.383747	0.074965	14.807592	2.574031	0.044925	21.790341	-12.739882	0.000000	0.098057	-0.295053	0.502393	0.182102	-0.392421	0.533793	0.161098	-0.717393	0.533793	0.112070	-0.717393	0.439594	0.091056	-0.601673	0.408195	0.056030	-0.457038	0.376795	0.700414	-3.337704	2.794162	0.000000	0.000000	26.450433	-2.765549	-9.344405	3.290529	-12.986006	50.112440	28.777467	58.423948	-6.663103	-3.925012	19.063450	-9.500772	79.626183	34.182807	89.356820	-8.863180	13.646356
2.183333	3.860075	4.731921	97.408093	0.125882	0.594814	0.860592	-0.472584	-0.324264	-16.513513	6.380696	0.111364	25.389828	16.693955	0.000000	0.837198	0.368845	15.136499	2.707284	0.047251	21.759416	-12.880167	0.000000	0.131184	-0.316311	0.419493	0.243621	-0.420693	0.445711	0.215522	-0.769078	0.445711	0.149930	-0.769078	0.367056	0.121817	-0.645021	0.340838	0.074958	-0.489966	0.314619	0.937033	-3.578172	2.333092	0.000000	0.000000	26.783948	-2.392139	-9.164128	3.944237	-12.802284	51.373399	29.110899	58.627693	-7.533072	-4.814218	18.909572	-9.362358	78.841056	34.411981	89.237278	-6.912502	14.419936
2.200000	3.657680	4.333469	97.716572	0.125442	0.594287	0.860983	-0.160670	-0.587413	-16.601404	6.197469	0.108166	25.529629	16.622521	0.000000	1.367301	0.687738	15.465995	2.872493	0.050134	21.742554	-13.026291	0.000000	0.172507	-0.338949	0.317819	0.320363	-0.450802	0.337683	0.283412	-0.824120	0.337683	0.197158	-0.824120	0.278092	0.160190	-0.691184	0.258228	0.098571	-0.525032	0.238364	1.232202	-3.834256	1.767615	0.000000	0.000000	27.105962	-1.953884	-8.853549	4.825027	-12.571495	53.132132	29.458391	58.732076	-8.326155	-5.666680	18.594182	-9.213414	77.511647	34.644710	88.898347	-4.894704	14.738221
2.216667	3.460466	3.890944	98.001982	0.125035	0.593719	0.861466	0.255426	-0.868683	-16.646854	6.099036	0.106448	25.713072	16.540913	0.000000	1.959692	1.014666	15.782654	3.061961	0.053441	21.730932	-13.189455	0.000000	0.221408	-0.360240	0.202888	0.411177	-0.479119	0.215568	0.363751	-0.875888	0.215568	0.253047	-0.875888	0.177527	0.205599	-0.734601	0.164846	0.126513	-0.558012	0.152166	1.581495	-4.075107	1.128402	0.000000	0.000000	27.399935	-1.471535	-8.360833	5.907091	-12.283753	55.345361	29.798188	58.551335	-8.841023	-6.381281	18.160174	-9.045859	75.788605	34.865466	88.366606	-2.926756	14.524401
2.233333	3.284821	3.413072	98.251912	0.124665	0.593121	0.862038	0.774804	-1.152240	-16.655014	6.095376	0.106384	25.932657	16.461982	0.000000	2.601457	1.331547	16.093867	3.267672	0.057032	21.711458	-13.384894	0.000000	0.277176	-0.377920	0.076724	0.514743	-0.502633	0.081519	0.455372	-0.918874	0.081519	0.316784	-0.918874	0.067133	0.257385	-0.770654	0.062338	0.158378	-0.585398	0.057543	1.979838	-4.275103	0.426715	0.000000	0.000000	27.648839	-0.984772	-7.694101	7.176323	-11.925109	58.013376	30.141383	57.885498	-9.021574	-6.875767	17.615462	-8.863435	73.638896	35.081456	88.042195	-0.999406	13.798800
2.250000	3.141425	2.918224	98.439494	0.124345	0.592529	0.862711	1.384063	-1.422722	-16.616205	6.188464	0.108009	26.165839	16.386203	0.000000	3.273758	1.619129	16.323873	3.489913	0.060910	21.696423	-13.539708	0.000000	0.337227	-0.389718	-0.052447	0.626263	-0.518325	-0.055725	0.554030	-0.947561	-0.055725	0.385416	-0.947561	-0.045891	0.313149	-0.794713	-0.042613	0.192691	-0.603673	-0.039335	2.408776	-4.408570	-0.291693	0.000000	0.000000	27.841854	-0.522726	-6.830286	8.586802	-11.499693	61.048945	30.480508	56.593477	-8.805481	-7.121667	17.048114	-8.678733	71.404065	35.275179	87.662967	0.742165	12.543895
2.266667	3.034711	2.420718	98.543838	0.124106	0.591973	0.863485	2.067395	-1.670588	-16.533255	6.375297	0.111270	26.391834	16.320718	0.000000	3.956054	1.865620	16.410762	3.719694	0.064921	21.693164	-13.594528	0.000000	0.399408	-0.394867	-0.176224	0.741740	-0.525173	-0.187238	0.656187	-0.960079	-0.187238	0.456483	-0.960079	-0.154196	0.370890	-0.805212	-0.143182	0.228222	-0.611648	-0.132168	2.852930	-4.466810	-0.980104	0.000000	0.000000	27.981615	-0.112483	-5.789582	10.077717	-11.015420	64.255440	30.824339	54.923443	-8.203555	-7.155929	16.503262	-8.513501	69.227674	35.473381	87.178663	2.322112	10.929784
2.283333	2.962578	1.920436	98.556393	0.123972	0.591451	0.864346	2.816378	-1.892811	-16.409642	6.644127	0.115962	26.591335	16.263479	0.000000	4.643148	2.069176	16.365388	3.948039	0.068906	21.687093	-13.583924	0.000000	0.463465	-0.393557	-0.291952	0.860701	-0.523431	-0.310199	0.761427	-0.956895	-0.310199	0.529694	-0.956895	-0.255458	0.430374	-0.802542	-0.237211	0.264824	-0.609620	-0.218964	3.310485	-4.451998	-1.623752	0.000000	0.000000	28.094938	0.232221	-4.565989	11.596041	-10.494099	67.417589	31.195038	53.494545	-7.266276	-7.054958	15.924655	-8.404709	66.978635	35.733226	86.552665	3.693950	9.089794
